<svg width="1360" height="252" viewBox="0 0 1360 252" fill="none" xmlns="http://www.w3.org/2000/svg">
<path d="M59.7491 3.4941V248.78H0V3.4941H59.7491Z" fill="black"/>
<path d="M315.84 3.4941L228.836 248.78H154.063L67.0595 3.4941H130.652L191.449 188.682L252.596 3.4941H315.84Z" fill="black"/>
<path d="M465.551 248.78L383.09 140.463V248.78H323.341V3.4941H383.09V111.112L464.852 3.4941H535.083L440.044 123.691L538.578 248.78H465.551Z" fill="black"/>
<path d="M665.506 251.226C642.445 251.226 621.248 245.868 601.914 235.153C582.813 224.438 567.555 209.53 556.141 190.429C544.96 171.095 539.369 149.431 539.369 125.438C539.369 101.445 544.96 79.8985 556.141 60.7974C567.555 41.6963 582.813 26.7881 601.914 16.0729C621.248 5.35762 642.445 0 665.506 0C688.567 0 709.648 5.35762 728.75 16.0729C748.084 26.7881 763.225 41.6963 774.173 60.7974C785.354 79.8985 790.945 101.445 790.945 125.438C790.945 149.431 785.354 171.095 774.173 190.429C762.992 209.53 747.851 224.438 728.75 235.153C709.648 245.868 688.567 251.226 665.506 251.226ZM665.506 196.718C685.073 196.718 700.68 190.196 712.327 177.151C724.207 164.106 730.147 146.869 730.147 125.438C730.147 103.775 724.207 86.5373 712.327 73.7255C700.68 60.6809 685.073 54.1586 665.506 54.1586C645.706 54.1586 629.866 60.5644 617.987 73.3761C606.34 86.1878 600.516 103.542 600.516 125.438C600.516 147.102 606.34 164.456 617.987 177.5C629.866 190.312 645.706 196.718 665.506 196.718Z" fill="black"/>
<path d="M1036.98 3.4941L949.973 248.78H875.199L788.196 3.4941H851.788L912.586 188.682L973.732 3.4941H1036.98Z" fill="black"/>
<path d="M1104.23 3.4941V248.78H1044.48V3.4941H1104.23Z" fill="black"/>
<path d="M1119.92 125.788C1119.92 101.562 1125.16 80.0149 1135.65 61.1468C1146.13 42.0457 1160.69 27.254 1179.32 16.7717C1198.19 6.05643 1219.5 0.698811 1243.26 0.698811C1272.38 0.698811 1297.31 8.38583 1318.04 23.7599C1338.77 39.1339 1352.63 60.0986 1359.62 86.6537H1293.93C1289.04 76.4044 1282.05 68.6009 1272.96 63.2432C1264.11 57.8856 1253.98 55.2068 1242.57 55.2068C1224.16 55.2068 1209.25 61.6127 1197.84 74.4244C1186.43 87.2361 1180.72 104.357 1180.72 125.788C1180.72 147.218 1186.43 164.339 1197.84 177.151C1209.25 189.963 1224.16 196.369 1242.57 196.369C1253.98 196.369 1264.11 193.69 1272.96 188.332C1282.05 182.974 1289.04 175.171 1293.93 164.922H1359.62C1352.63 191.477 1338.77 212.441 1318.04 227.815C1297.31 242.957 1272.38 250.527 1243.26 250.527C1219.5 250.527 1198.19 245.286 1179.32 234.804C1160.69 224.088 1146.13 209.297 1135.65 190.429C1125.16 171.56 1119.92 150.013 1119.92 125.788Z" fill="black"/>
</svg>
